<svg version="1.1" id="Layer_1" xmlns="http://www.w3.org/2000/svg" x="0" y="0" viewBox="0 0 432 432" xml:space="preserve"><style>.st0{fill:#0055b8}.st1{fill:#008fbe}.st2{fill:#001c71}</style><path class="st0" d="M210.8 233.8h9.7v103.9h-9.7z"/><path class="st1" d="M94.3 350.3h103.9v9.7H94.3z"/><path class="st2" d="M94.3 211.5h103.9v9.7H94.3z"/><path d="M72 233.8h9.7v103.9H72zM211 94.6h9.7v103.9H211z" fill="#00a7e1"/><path class="st1" d="M233.3 211.1h103.9v9.7H233.3z"/><path class="st2" d="M233.3 72.3h103.9V82H233.3z"/><path class="st0" d="M349.8 94.6h9.7v103.9h-9.7z"/><path d="M287.8 168.3h-2.9v15h3v-9.9c0-1.7 1.1-2.5 2.4-2.5 1.3 0 1.9.7 1.9 2 0 10.2 0 10.3.1 10.3h3c-.1 0-.1-.1-.1-11.3 0-2.5-1.1-3.9-3.8-3.9-1.6 0-3.1.6-3.6 2v-1.7zm-13.5 10.8c0-2 1.1-2.8 3.6-2.8.5 0 1 0 1.3.1v1.4c-.1 2.5-1.3 3.3-2.9 3.3-1.2-.1-2-.7-2-2m-3 0c0 3.1 1.6 4.2 4.2 4.2 1.9 0 2.9-.5 3.6-1.4 0 .7.1 1.3.2 1.3h2.8c-.1-.3-.2-1.6-.2-2.6v-4.3c0-1.3 0-3.6-.1-4.8-.2-2.1-1.5-3.5-4.7-3.5-4 0-5.3 1.9-5.3 4.9h2.8c.1-1.4.4-2.2 2.3-2.2 1.3 0 2 .5 2 1.5.1.5 0 1.5 0 1.9h-1.3c-4.1-.1-6.3 1.5-6.3 5m-.6-21.6v-12.3h2.8v-2.6h-2.8v-2.9c0-.7.4-1.4 1.5-1.4.4 0 1.1.1 1.5.1v-2.6c-.4-.1-1.5-.1-2.4-.1-2.6 0-3.6 1.5-3.6 3.6v3.3h-1.8v2.7h1.8v12.3h3zm-1.8 10.8h-3V182c0 .8 0 1.2.1 1.2h3c-.1-.1-.1-.5-.1-1.3v-13.6zm.1-4.5h-3.2v3.2h3.2v-3.2zm-6.1-2.3h-3c0 .2.1.9.1 1.4v19.3c0 .6 0 1 .1 1h3c-.1-.1-.1-.5-.1-1.3v-19.4c0-.4-.1-.9-.1-1m-6 0h-3c0 .2.1.9.1 1.4v19.3c0 .6 0 1 .1 1h3c-.1-.1-.1-.5-.1-1.3v-19.4c0-.4-.1-.9-.1-1M121.4 301.8c0 2.3-.9 3.5-2.9 3.5H114v-16.6h4.1c2.1 0 3.3 1.4 3.3 3.8v9.3zm0-23.4c0 2.5-1.2 3.7-3.3 3.7H114v-16h4.4c2 0 3 1.2 3 3.5v8.8zm8.4 23.8v-9c0-4-1.5-6.8-5.5-8.1 3.8-1.1 5.3-4.1 5.3-8.1v-7.9c0-7.3-4.4-10.5-10.4-10.5h-13.9v54h14.1c5.9.1 10.4-3 10.4-10.4m20.7-19.5c-5-5.3-7.4-7.9-7.4-13.2 0-2.8 1.7-4.4 4.2-4.4 2.8 0 4.1 2 4.1 5v4.9h7.8v-4.9c0-7.4-4.7-12.4-11.9-12.4-8.3 0-12.6 5.9-12.6 13.2 0 6.9 5.2 13.2 9.6 17.7 4.5 4.8 6.9 8.3 6.9 13 0 3-1.5 4.9-4.5 4.9s-4.5-1.9-4.5-5.3v-4.6h-7.9v4.8c0 7.6 4.9 12.4 12.6 12.4 7 0 12.6-4.7 12.6-13.3.2-7-3.7-12.4-9-17.8m27.8 12.2h-5.8l3.2-22 2.6 22zm2.4 17.8h8.8l-9-54H171l-9 54h7.9l1.6-10.5h7.9l1.3 10.5zm64.8-199.6h4.6v-3h-12.4v3h4.5v18.6h3.3v-18.6zm-3.8 27.9c0-1.7 1-2.5 2.8-2.5 2.4 0 3.1 1.1 3.1 3.5h3.2c0-4.5-2.1-6.4-6.3-6.4-4.1 0-6.2 2-6.2 5.4 0 3.8 2.8 5.2 5.4 6.5 2.1 1.1 4.1 2.2 4.1 4.5 0 1.9-1.1 2.8-3.1 2.8-1.9 0-3.2-.9-3.3-3.5h-3.2c.1 4.8 2.5 6.4 6.7 6.4 4.1 0 6.2-2.2 6.2-5.9 0-3.6-2.5-5.2-4.9-6.5-2.3-1.2-4.5-2.2-4.5-4.3m5.2 34.2h-4.2s1.9-8.2 1.9-8.5c.1-.4.3-2 .3-2s.2 1.6.3 2l1.7 8.5zm1.8 8h3.3l-4.9-21.6h-4.2l-5.3 21.6h3.3l1.2-5.2h5.6l1 5.2zm10.7-51.5h3c-.1 0-.1-.2-.1-11.3 0-2.7-1.3-3.9-3.6-3.9-2 0-3.2.7-3.7 1.9V110h-3v21.7h3v-10c0-1.5 1-2.3 2.3-2.3 1.4 0 2 .8 2 1.9.1 10.2 0 10.4.1 10.4m2.1 18.3c0 1.3-.2 2.9-.5 3.7-.4.8-1.2 1.3-2.2 1.3-1.1 0-1.9-.4-2.3-1.3-.3-.8-.5-2.3-.5-3.7 0-1.2.1-2.9.5-3.6.4-.9 1.1-1.3 2.3-1.3 1.2 0 1.9.4 2.3 1.2.3.6.4 2.4.4 3.7m2 5.1c.7-1.4 1-3 1-5.1 0-2.3-.4-4-1-5.2-.7-1.5-2.2-2.5-4.7-2.5s-4 1.1-4.8 2.5c-.7 1.2-1 3.1-1 5.2 0 2 .4 4.1 1 5.2.8 1.5 2.3 2.5 4.7 2.5 2.4 0 4-1 4.8-2.6m9.4-32.1h-5.3c0-1.3.1-2.2.5-2.9.5-.7 1.2-1 2.1-1 1.1 0 1.8.5 2.2 1.1.4.6.5 2.2.5 2.8m2.9 2.4c.1-3.1-.1-5-.8-6.5-.7-1.4-2.2-2.5-4.7-2.5s-4 1.1-4.8 2.7c-.6 1.1-.8 2.8-.8 5.1 0 2.5.3 4.1.9 5.2 1 1.8 2.7 2.5 4.7 2.5 1.7 0 3.2-.4 4.2-1.7.8-1 1.2-2.5 1.2-3.3h-2.8c0 .4-.1 1.1-.5 1.7-.4.5-1.1.7-2 .7-2 0-2.6-1.3-2.7-3.9h8.1zm3.8 19.8h2.9v-2.6h-2.9v-2.9l-2.9.1s-.1 2.6-.1 2.8H275v2.7h1.7v9.2c0 2.5 1.6 3.3 3.3 3.3 1 0 1.9-.1 2.5-.2V155c-.3.1-.9.1-1.3.1-1 0-1.5-.2-1.5-1.4-.1-5.8-.1-7.7-.1-8.5m19.5 12.3l3.7-15h-2.9l-2.4 11.5-2.3-11.5h-3.3l-2.2 11.5-2.5-11.5H284l3.7 15h3.5s1.8-8.6 2.1-9.9c.1-.4.2-2.9.2-2.9s.1 2.4.2 2.9c.3 1.3 2.1 9.9 2.1 9.9h3.3zm3.7 10.5c-2.1 0-3.6.8-4.5 2.3-.7 1.4-1.1 3.3-1.1 5.4 0 2.3.4 4.5 1.2 5.7.8 1.3 2.3 2 4.5 2 2.1 0 3.8-.6 4.7-2.4.4-.9.7-2.3.7-3.3h-2.8c0 .4-.1 1.3-.3 1.9-.3.8-1 1.1-2.1 1.1s-1.8-.3-2.2-1.2c-.4-.9-.5-2.6-.5-3.8 0-1.6.1-2.7.5-3.7.3-.8 1.1-1.3 2.1-1.3 1.2 0 1.8.5 2.2 1.4.2.6.3 1.3.3 1.8h2.9c0-.7-.1-2.3-.4-3-.7-1.6-2.1-2.9-5.2-2.9m8.8-16.1c-.1 2.5-1.3 3.3-2.9 3.3-1.1 0-2-.5-2-1.9 0-2 1.1-2.8 3.6-2.8.5 0 1 0 1.3.1v1.3m3 5.6c-.1-.3-.2-1.6-.2-2.6v-4.3c0-1.3 0-3.6-.1-4.8-.2-2.1-1.5-3.5-4.7-3.5-4 0-5.3 1.9-5.3 4.9h2.8c.1-1.4.4-2.2 2.3-2.2 1.3 0 2 .5 2 1.5.1.5 0 1.5 0 1.9h-1.3c-4.4 0-6.5 1.6-6.5 5.1 0 3.1 1.6 4.2 4.2 4.2 1.9 0 2.9-.5 3.6-1.4 0 .7.1 1.3.2 1.3h3zm3.7 17H313c0-1.3.1-2.2.5-2.9.5-.7 1.2-1 2.2-1 1.1 0 1.8.5 2.1 1.1.4.6.5 2.2.5 2.8m-2.5-6.5c-2.5 0-4 1.1-4.8 2.7-.6 1.1-.8 2.8-.8 5.1 0 2.5.3 4.1.9 5.2 1 1.8 2.7 2.5 4.7 2.5 1.7 0 3.2-.4 4.2-1.7.8-1 1.2-2.5 1.2-3.3h-2.8c0 .4-.1 1.1-.5 1.7-.4.5-1.1.7-2 .7-2 0-2.6-1.3-2.7-3.9h8.1c.1-3.1-.1-5-.8-6.5-.7-1.4-2.2-2.5-4.7-2.5m6.9-22.7c1 0 1.6.1 2.2.3v-3.1c-.4-.1-.8-.2-1.6-.2-1.5 0-2.9 1-3.1 2.3v-2h-3v15h3v-8.8c0-2.5 1-3.5 2.5-3.5m11.5 3.5h-5.3c0-1.3.1-2.2.5-2.9.5-.7 1.2-1 2.2-1 1.1 0 1.8.5 2.2 1.1.2.5.4 2.2.4 2.8m2.1-4.1c-.7-1.4-2.2-2.5-4.7-2.5s-4 1.1-4.8 2.7c-.6 1.1-.8 2.8-.8 5.1 0 2.5.3 4.1.9 5.2 1 1.8 2.7 2.5 4.7 2.5 1.7 0 3.2-.4 4.2-1.7.8-1 1.2-2.5 1.2-3.3h-2.8c0 .4-.1 1.1-.5 1.7-.4.5-1.1.7-2 .7-2 0-2.6-1.3-2.7-3.9h8.1c.1-3.1-.1-5.1-.8-6.5"/></svg>